<svg xmlns="http://www.w3.org/2000/svg" xmlns:xlink="http://www.w3.org/1999/xlink" version="1.1" x="0px" y="0px" viewBox="0 0 100 125" style="enable-background:new 0 0 100 100;" xml:space="preserve"><path d="M96.7,88.2L76.8,68.3l0.7-0.9c2.7-3.7,4.7-7.8,5.9-12h1.5c1.7,0,3-1.3,3-3c0-1.7-1.3-3-3-3h-0.2  c1.6-11.9-2.3-24.3-11.3-33.4C65.9,8.5,55.9,4.4,45.3,4.4C34.7,4.4,24.8,8.5,17.3,16C10.5,22.8,6.4,31.7,5.8,41.2l-0.9,0  c0,0-0.1,0-0.1,0c-1.6,0-3,1.3-3,2.9c0,1.7,1.3,3,2.9,3.1l1.1,0c0.7,9.4,4.7,18.2,11.5,24.9c7.5,7.5,17.5,11.6,28.1,11.6  c8.4,0,16.5-2.6,23.3-7.5l0.9-0.7l0.2,0.2l19.8,19.7c1,1,2.3,1.5,3.6,1.5c1.4,0,2.7-0.5,3.6-1.5c1-1,1.5-2.3,1.5-3.6  C98.2,90.5,97.7,89.2,96.7,88.2z M21.8,20.5c6.3-6.3,14.7-9.8,23.5-9.8c8.9,0,17.3,3.5,23.5,9.8c7.8,7.8,10.9,18.6,9.3,28.8H64  l-5.7-10.5c-0.5-1-1.6-1.6-2.7-1.6c-1.1,0-2.2,0.7-2.6,1.8l-7.8,17.3l-6.2-35.5c-0.2-1.3-1.3-2.3-2.6-2.5c-1.3-0.1-2.6,0.6-3.1,1.8  l-9.1,21.5l-11.9-0.3C12.8,33.5,16.1,26.2,21.8,20.5z M68.9,67.6c-6.3,6.3-14.7,9.8-23.5,9.8c-8.9,0-17.3-3.5-23.5-9.8  c-5.5-5.5-8.9-12.6-9.6-20.3l13.8,0.4c1.2,0.1,2.4-0.7,2.8-1.8l5.9-14l6.2,35c0.2,1.3,1.3,2.3,2.6,2.5c0.1,0,0.3,0,0.4,0  c1.2,0,2.2-0.7,2.7-1.8L55.9,47l3.7,6.8c0.5,1,1.5,1.6,2.6,1.6h14.5C75,59.8,72.5,64,68.9,67.6z"/><text x="0" y="115" fill="#000000" font-size="5px" font-weight="bold" font-family="'Helvetica Neue', Helvetica, Arial-Unicode, Arial, Sans-serif">Created by Gem Designs</text><text x="0" y="120" fill="#000000" font-size="5px" font-weight="bold" font-family="'Helvetica Neue', Helvetica, Arial-Unicode, Arial, Sans-serif">from the Noun Project</text></svg>